<?xml version="1.0"?>
<svg xmlns="http://www.w3.org/2000/svg" xmlns:xlink="http://www.w3.org/1999/xlink" xmlns:svgjs="http://svgjs.com/svgjs" version="1.1" width="512" height="512" x="0" y="0" viewBox="0 0 24 24" style="enable-background:new 0 0 512 512" xml:space="preserve" class=""><g><path xmlns="http://www.w3.org/2000/svg" d="m22 16a1 1 0 0 0 -1 1v4h-18v-4a1 1 0 0 0 -2 0v5a1 1 0 0 0 1 1h20a1 1 0 0 0 1-1v-5a1 1 0 0 0 -1-1z" fill="#002736" data-original="#000000" style=""/><path xmlns="http://www.w3.org/2000/svg" d="m11.293 17.707a1 1 0 0 0 1.414 0l6-6a1 1 0 0 0 -1.414-1.414l-4.293 4.293v-12.586a1 1 0 0 0 -2 0v12.586l-4.293-4.293a1 1 0 0 0 -1.414 1.414z" fill="#002736" data-original="#000000" style=""/></g></svg>
